<svg width="48" height="48" viewBox="0 0 48 48" fill="none" xmlns="http://www.w3.org/2000/svg">
<path d="M8.93164 32.3711C8.91655 32.6468 8.68096 32.8588 8.40527 32.8438C8.12997 32.8285 7.9189 32.5927 7.93359 32.3174L8.93164 32.3711Z" fill="black"/>
<path d="M15.3623 26.9238C16.2259 26.9739 17.0456 27.3305 17.6729 27.9316C18.3419 28.5729 18.742 29.4447 18.791 30.3701L18.8965 32.3174C18.9112 32.5929 18.7004 32.8287 18.4248 32.8438C18.1493 32.8585 17.9135 32.6466 17.8984 32.3711L17.792 30.4238C17.7565 29.7522 17.467 29.1187 16.9814 28.6533C16.5565 28.2461 16.0094 27.9939 15.4287 27.9326L15.1787 27.918H11.6514L11.4014 27.9326C10.8208 27.994 10.2735 28.246 9.84863 28.6533C9.36318 29.1189 9.07334 29.7531 9.03809 30.4248L8.93164 32.3711L8.43262 32.3438L7.93359 32.3174L8.03906 30.3711C8.08784 29.4457 8.48743 28.5731 9.15625 27.9316C9.82535 27.2901 10.7147 26.9277 11.6416 26.918H15.1885L15.3623 26.9238Z" fill="black"/>
<path d="M23.5068 32.6201C23.3546 32.85 23.0446 32.9134 22.8145 32.7617C22.5843 32.6095 22.5209 32.2987 22.6729 32.0684L23.5068 32.6201Z" fill="black"/>
<path d="M25.9932 27.6035C26.1918 27.6422 26.3476 27.7968 26.3877 27.9951L26.918 30.6191L28.1406 29.0234L28.1885 28.9697C28.3076 28.8533 28.4787 28.8027 28.6445 28.8389C28.8342 28.8805 28.9828 29.0283 29.0254 29.2178L29.3486 30.6592C30.7497 30.1178 32.1171 30.3555 33.3076 30.6348C34.0077 30.799 34.6176 30.9702 35.2129 31.0576C35.7964 31.1433 36.2978 31.1349 36.7451 30.9727L36.8428 30.9482C37.073 30.9141 37.3032 31.0452 37.3857 31.2725C37.48 31.532 37.3455 31.8189 37.0859 31.9131L36.835 31.9922C36.2474 32.1508 35.6474 32.132 35.0674 32.0469C34.4163 31.9512 33.722 31.7592 33.0791 31.6084C31.7504 31.2967 30.4923 31.1224 29.2383 31.8125C29.1007 31.8879 28.9351 31.8945 28.792 31.8301C28.6489 31.7654 28.5442 31.6366 28.5098 31.4834L28.2842 30.4805L27.0439 32.1016C26.9247 32.257 26.7251 32.3283 26.5342 32.2842C26.3433 32.24 26.1952 32.0885 26.1562 31.8965L25.6465 29.3799L23.5068 32.6201L23.0898 32.3438L22.6729 32.0684L25.4805 27.8184L25.5264 27.7588C25.6425 27.6302 25.8195 27.5699 25.9932 27.6035Z" fill="black"/>
<path fill-rule="evenodd" clip-rule="evenodd" d="M13.6904 21.0088C14.8454 21.1269 15.7461 22.1004 15.7461 23.2852V23.2881C15.7447 23.8947 15.5018 24.4759 15.0723 24.9043C14.6429 25.3324 14.0614 25.5724 13.4551 25.5723C12.1906 25.5721 11.1648 24.548 11.166 23.2842C11.1665 22.0211 12.1929 20.9973 13.4561 20.9971L13.6904 21.0088ZM13.4551 21.9971C12.7431 21.9976 12.166 22.5751 12.166 23.2852L12.1719 23.417C12.2372 24.0654 12.7865 24.5731 13.4551 24.5732C13.7966 24.5734 14.1243 24.4374 14.3662 24.1963C14.6081 23.955 14.7453 23.6278 14.7461 23.2861C14.7461 22.5759 14.17 21.9978 13.4551 21.9971Z" fill="black"/>
<path d="M34.8066 24.4248C35.0827 24.4248 35.3065 24.6488 35.3066 24.9248C35.3066 25.2009 35.0827 25.4248 34.8066 25.4248H23.3633C23.0875 25.4244 22.8633 25.2007 22.8633 24.9248C22.8635 24.649 23.0876 24.4252 23.3633 24.4248H34.8066Z" fill="black"/>
<path d="M34.9072 22.0537C35.1351 22.1003 35.3066 22.3014 35.3066 22.543C35.3066 22.7846 35.1351 22.9867 34.9072 23.0332L34.8066 23.043H23.3633C23.0875 23.0426 22.8633 22.8188 22.8633 22.543C22.8634 22.2671 23.0875 22.0433 23.3633 22.043H34.8066L34.9072 22.0537Z" fill="black"/>
<path d="M34.8066 19.6611C35.0828 19.6611 35.3066 19.885 35.3066 20.1611C35.3066 20.4372 35.0827 20.6611 34.8066 20.6611H23.3633C23.0875 20.6608 22.8633 20.437 22.8633 20.1611C22.8633 19.8852 23.0875 19.6615 23.3633 19.6611H34.8066Z" fill="black"/>
<path d="M18.498 15.1709C18.7261 15.2174 18.8975 15.4194 18.8975 15.6611C18.8974 15.9028 18.7261 16.1049 18.498 16.1514L18.3975 16.1611H8.43262C8.15668 16.1609 7.93268 15.9371 7.93262 15.6611C7.93262 15.3851 8.15664 15.1613 8.43262 15.1611H18.3975L18.498 15.1709Z" fill="black"/>
<path d="M39.5342 15.1611C39.8103 15.1611 40.0342 15.385 40.0342 15.6611C40.0341 15.9372 39.8103 16.1611 39.5342 16.1611H23.3193C23.0435 16.1608 22.8194 15.937 22.8193 15.6611C22.8193 15.3852 23.0435 15.1615 23.3193 15.1611H39.5342Z" fill="black"/>
<path fill-rule="evenodd" clip-rule="evenodd" d="M40.4062 12.1807C41.8383 12.1808 42.9997 13.3399 43 14.7705V33.2285C43 34.6594 41.8385 35.8182 40.4062 35.8184H7.59375C7.25371 35.8189 6.9169 35.7527 6.60254 35.623C6.28781 35.4932 6.00173 35.302 5.76074 35.0615C5.5198 34.821 5.3277 34.5352 5.19727 34.2207C5.09961 33.9851 5.03769 33.7363 5.0127 33.4834L5 33.2285V14.7705C5.00028 13.3398 6.16283 12.1808 7.59375 12.1807H40.4062ZM7.59375 13.1807C6.71325 13.1808 6.00028 13.8939 6 14.7705V33.2285L6.00781 33.3848C6.02314 33.5401 6.06109 33.6931 6.12109 33.8379C6.20116 34.0309 6.31892 34.2068 6.4668 34.3545C6.6146 34.502 6.79041 34.6186 6.9834 34.6982C7.17658 34.7779 7.38381 34.8187 7.59277 34.8184H40.4062C41.2878 34.8182 42 34.1055 42 33.2285V14.7705C41.9997 13.8938 41.2876 13.1808 40.4062 13.1807H7.59375Z" fill="black"/>
</svg>
