<svg width="48" height="48" viewBox="0 0 48 48" fill="none" xmlns="http://www.w3.org/2000/svg">
<path fill-rule="evenodd" clip-rule="evenodd" d="M22.4697 9.45465C23.9371 9.1367 25.7846 9.69339 27.5195 11.0181C27.954 10.7966 28.457 10.6629 28.9756 10.608C29.8164 10.5189 30.7522 10.6288 31.6279 10.9507C33.2199 11.5361 34.6539 12.8466 34.9189 14.9664C35.4597 14.7991 35.9962 14.7431 36.5175 14.7877C37.7995 14.8975 38.9073 15.603 39.6836 16.5484C40.4585 17.4923 40.9343 18.7115 40.9287 19.9136C40.9248 20.7423 40.6896 21.5614 40.1718 22.2613C41.1196 22.3515 41.8383 22.9441 42.3017 23.7183C42.801 24.5526 43.0353 25.6346 42.997 26.6939C42.9587 27.7539 42.6457 28.8461 41.9873 29.6851C41.3164 30.5399 40.3061 31.104 38.9629 31.1041H27.4472C27.4365 31.3022 27.419 31.5511 27.3867 31.8365C27.3039 32.5672 27.1293 33.5507 26.7617 34.5416C26.3947 35.5308 25.8249 36.5544 24.9345 37.3326C24.0344 38.1192 22.8329 38.6322 21.2597 38.6324H9.49606C6.60939 38.6323 5.04629 36.498 4.99997 34.3785C4.977 33.3225 5.32758 32.2499 6.08786 31.438C6.41048 31.0936 6.80088 30.8029 7.25583 30.5816C5.8069 29.82 5.03242 28.3329 4.99997 26.8511C4.97689 25.7951 5.32754 24.7226 6.08786 23.9107C6.65145 23.3089 7.4211 22.8711 8.38278 22.6812C7.38396 21.5831 6.88218 20.4901 6.79196 19.4625C6.68005 18.1859 7.21198 17.0944 8.0527 16.3316C9.27234 15.2252 11.2017 14.7674 12.8828 15.4078C12.7093 14.7725 12.7082 14.1693 12.8633 13.6138C13.1515 12.5813 13.9456 11.8251 14.8965 11.3912C16.4422 10.686 18.5733 10.7638 20.0703 12.0201C20.1578 11.5303 20.3232 11.095 20.5683 10.7232C21.014 10.0477 21.6849 9.62483 22.4697 9.45465ZM26.6914 11.65C25.1748 10.5599 23.713 10.2087 22.6816 10.4322C22.1248 10.5529 21.6903 10.839 21.4033 11.274C21.1129 11.7144 20.9443 12.3533 21.0117 13.2242C21.0293 13.4514 20.8904 13.662 20.6748 13.7359C20.4592 13.8095 20.221 13.7279 20.0957 13.5377C19.008 11.886 16.8481 11.5994 15.3115 12.3003C14.5565 12.6449 14.016 13.2026 13.8261 13.8824C13.6391 14.5526 13.7621 15.4538 14.5595 16.5552L14.6084 16.6382C14.7018 16.8401 14.6508 17.0858 14.4736 17.233C14.2963 17.38 14.0454 17.3846 13.8642 17.2554L13.791 17.192C12.3529 15.6752 10.0409 15.8779 8.72458 17.0718C8.0837 17.6533 7.70702 18.4499 7.78805 19.3746C7.86717 20.277 8.3908 21.3784 9.69138 22.5757H16.5722C17.6282 22.5757 18.3236 22.1373 18.7763 21.4615C19.2466 20.7591 19.4765 19.7634 19.4765 18.6548C19.4766 18.3788 19.7004 18.1548 19.9765 18.1548C20.2524 18.1551 20.4764 18.3789 20.4765 18.6548C20.4765 19.8771 20.227 21.0928 19.6074 22.0181C19.0099 22.9102 18.0878 23.4989 16.8281 23.5689L16.5722 23.5757H9.49704L9.49606 23.5748C8.24407 23.5748 7.37251 24.0016 6.81735 24.5943C6.25619 25.1937 5.98202 26.0031 5.99997 26.8287C6.03478 28.4215 7.14584 30.0017 9.28513 30.0992L9.49606 30.1041H12.1826L12.2841 30.1138C12.5117 30.1606 12.6824 30.3627 12.6826 30.6041C12.6824 30.8453 12.5116 31.0465 12.2841 31.0933L12.1826 31.1041H9.49704L9.49606 31.1031C8.24408 31.1031 7.37251 31.5289 6.81735 32.1216C6.25591 32.7212 5.98194 33.5311 5.99997 34.357C6.03591 36.0013 7.21908 37.6323 9.49606 37.6324H21.2597C22.5955 37.6322 23.5619 37.2039 24.2763 36.5796C25.0008 35.9464 25.493 35.0865 25.8242 34.1939C26.1547 33.303 26.3154 32.4048 26.3925 31.7242C26.4195 31.486 26.4351 31.2757 26.4453 31.1041H19.0205C18.7444 31.1041 18.5205 30.8802 18.5205 30.6041C18.5205 30.3279 18.7443 30.1041 19.0205 30.1041H22.8252V26.2574C22.8253 25.3755 23.0588 24.3184 23.7041 23.4693C24.3658 22.5987 25.426 21.9938 26.9619 21.9937C27.2379 21.9938 27.4617 22.2178 27.4619 22.4937C27.4619 22.7698 27.238 22.9936 26.9619 22.9937C25.7215 22.9938 24.9635 23.4663 24.5009 24.0748C24.0222 24.7048 23.8253 25.5296 23.8252 26.2574V30.1041H38.9629C39.9927 30.104 40.7151 29.6859 41.2002 29.0679C41.6976 28.434 41.9653 27.5616 41.998 26.6578C42.0307 25.7533 41.8264 24.8706 41.4443 24.232C41.0667 23.601 40.5465 23.2477 39.9189 23.2476H33.7695C33.4934 23.2476 33.2695 23.0237 33.2695 22.7476C33.2697 22.4717 33.4935 22.2476 33.7695 22.2476H38.7968C39.5854 21.6328 39.9245 20.7935 39.9287 19.9087C39.9331 18.9643 39.5537 17.967 38.9101 17.1832C38.2676 16.4007 37.3925 15.866 36.4326 15.7837C35.906 15.7387 35.3281 15.8279 34.7216 16.1128L33.1689 17.2515C32.9582 17.4059 32.6642 17.3715 32.4941 17.1734C32.324 16.9751 32.3349 16.6795 32.5195 16.4947L32.7666 16.2574C33.1569 15.8992 33.5537 15.6114 33.9511 15.3873C33.8387 13.5236 32.6666 12.3982 31.2822 11.8892C30.5479 11.6194 29.7666 11.5295 29.081 11.6021C28.5551 11.6578 28.1153 11.8061 27.7949 12.0123L27.5039 12.2466C27.1235 12.6313 26.9385 12.9327 26.8242 13.2007C26.6978 13.4972 26.6533 13.7514 26.5459 14.15C26.3295 14.9528 25.9481 15.8794 24.4638 17.3648C24.2686 17.5601 23.9521 17.56 23.7568 17.3648C23.5618 17.1696 23.5617 16.853 23.7568 16.6578C25.1296 15.2839 25.4135 14.5072 25.58 13.8892C25.664 13.5776 25.7414 13.1912 25.9043 12.8091C26.0614 12.4406 26.2971 12.0682 26.6914 11.65Z" fill="black"/>
</svg>
