<svg width="48" height="48" viewBox="0 0 48 48" fill="none" xmlns="http://www.w3.org/2000/svg">
<path fill-rule="evenodd" clip-rule="evenodd" d="M24.1357 18.7803C26.8875 18.7817 29.121 21.0053 29.1191 23.751V23.7568C29.1177 26.4155 27.0207 28.5846 24.3877 28.7168L24.1309 28.7236C21.465 28.7214 19.285 26.6347 19.1533 24.0068L19.1475 23.751V23.7471C19.1486 21.0001 21.3835 18.7792 24.1357 18.7803ZM24.1357 19.7803C21.9321 19.7794 20.1486 21.5563 20.1475 23.7471V23.752C20.146 25.9424 21.928 27.7218 24.1318 27.7236L24.3369 27.7178C26.3767 27.6154 28.0102 25.9868 28.1143 23.96L28.1191 23.7559V23.751L28.1143 23.5469C28.0093 21.4519 26.2702 19.7816 24.1357 19.7803Z" fill="black"/>
<path fill-rule="evenodd" clip-rule="evenodd" d="M24.1357 15.0508C28.9548 15.0522 32.8631 18.9455 32.8633 23.751C32.8632 28.5568 28.9519 32.4491 24.1328 32.4492C19.3137 32.449 15.4044 28.5567 15.4043 23.751V23.748C15.4055 18.9423 19.3164 15.0497 24.1357 15.0508ZM24.1348 16.0508C19.8644 16.0501 16.4054 19.4982 16.4043 23.748V23.751C16.4044 28.0008 19.8625 31.449 24.1328 31.4492C28.4034 31.4491 31.8632 28.0008 31.8633 23.751C31.8631 19.501 28.4052 16.0519 24.1348 16.0508Z" fill="black"/>
<path fill-rule="evenodd" clip-rule="evenodd" d="M24 12.6836C29.1812 12.6836 33.8969 13.9105 37.334 15.9199C40.7588 17.9223 42.9998 20.7626 43 24C42.9998 27.2373 40.7586 30.0767 37.334 32.0791C33.8969 34.0886 29.1813 35.3154 24 35.3154C18.8187 35.3154 14.1031 34.0886 10.666 32.0791C7.24138 30.0767 5.00019 27.2373 5 24C5.0002 20.7626 7.24125 17.9223 10.666 15.9199C14.1031 13.9105 18.8188 12.6836 24 12.6836ZM24 13.6836C18.9644 13.6836 14.4296 14.878 11.1709 16.7832C7.9003 18.6954 6.0002 21.2648 6 24C6.00019 26.7352 7.90045 29.3036 11.1709 31.2158C14.4296 33.121 18.9643 34.3154 24 34.3154C29.0357 34.3154 33.5704 33.121 36.8291 31.2158C40.0995 29.3036 41.9998 26.7352 42 24C41.9998 21.2648 40.0997 18.6954 36.8291 16.7832C33.5704 14.878 29.0356 13.6836 24 13.6836Z" fill="black"/>
</svg>
