<?xml version="1.0" encoding="UTF-8"?>
<svg id="Layer_2" data-name="Layer 2" xmlns="http://www.w3.org/2000/svg" xmlns:xlink="http://www.w3.org/1999/xlink" viewBox="0 0 53.53 59.6">
  <defs>
    <style>
      .cls-1 {
        fill: url(#radial-gradient);
      }

      .cls-2 {
        fill: #e41e26;
      }

      .cls-3 {
        fill: #f0ede8;
      }
    </style>
    <radialGradient id="radial-gradient" cx="25.66" cy="23.98" fx="25.66" fy="23.98" r="46.29" gradientUnits="userSpaceOnUse">
      <stop offset="0" stop-color="#32181b"/>
      <stop offset="1" stop-color="#1e1415"/>
    </radialGradient>
  </defs>
  <g id="Layer_1-2" data-name="Layer 1">
    <g>
      <path class="cls-1" d="M.07,15.5c0-7.12,1.37-9.72,3.58-11.93C5.85,1.37,8.89,0,12.23,0h29.13c3.34,0,6.38,1.37,8.59,3.58,2.21,2.21,3.57,4.81,3.57,11.93v9.19s0,9.19,0,9.19c0,7.12-1.37,9.72-3.57,11.93-2.21,2.21-5.25,3.58-8.59,3.58h-2.47c-.47,0-.7.43-.67.74l1.37,7.45c0,1.7-2.04,2.87-3.41,1.27-4.64-5.55-4.01-5.25-6.68-7.72-1.3-1.24-2.87-1.74-4.14-1.74h-13.2c-3.34,0-6.38-1.37-8.59-3.58C1.37,43.6,0,41,0,33.88v-9.19s0-9.19,0-9.19h.07Z"/>
      <path class="cls-2" d="M22.65,35.78c0,2,1.64,3.64,3.64,3.64s3.64-1.64,3.64-3.64c0-2-1.64-3.64-3.64-3.64s-3.64,1.64-3.64,3.64Z"/>
      <path class="cls-3" d="M14.7,8.79c-3.34,0-6.01,2.67-6.01,5.98v15.4c0,1,.27,1.77.94,2.44.63.63,1.7,1.2,2.71,1.2,1,0,2.04-.53,2.71-1.2.67-.67.94-1.44.94-2.44v-10.19c0-1.84,1.5-3.34,3.34-3.34s3.34,1.5,3.34,3.34v4.51c0,2,1.64,3.64,3.64,3.64,2,0,3.64-1.64,3.64-3.64v-4.48c0-1.84,1.5-3.34,3.34-3.34h.6c1.84,0,3.34,1.5,3.34,3.34v10.19c0,1,.27,1.77.94,2.44.63.63,1.7,1.2,2.71,1.2s2.04-.53,2.71-1.2c.58-.58.86-1.25.92-2.07l.05-.4v-15.4c0-3.31-2.71-5.98-6.01-5.98H14.7Z"/>
    </g>
  </g>
</svg>
